<svg xmlns="http://www.w3.org/2000/svg" width="560" height="560" viewBox="0 0 95 91" fill="none" xmlns:v="https://vecta.io/nano"><g fill="#2a94f4"><path opacity=".1" d="M60.1 82.04c9.968-3.165 28.153-2.65 31.058-22.974S78.42 29.367 80.77 16.07 46.117-13.6 41.03 19.15 21.485 45.564 16.953 39.705 3.566 35.575.937 42.548.41 77.648 17.68 81.52s32.443 3.686 42.41.52z"/><path opacity=".1" d="M53.49 90.22c22.778 0 41.244-3.03 41.244-6.766s-18.465-6.767-41.244-6.767-41.244 3.03-41.244 6.767S30.71 90.22 53.49 90.22z"/></g><g fill="#ffbe55"><path d="M35.36 55.85h-4.098l.477 9.92h3.144l.477-9.92z"/><path d="M32.207 64.02l.286 16.33h1.636l.287-16.33h-2.2zm.845-3.905c4.73 0 8.564-1.628 8.564-3.636s-3.834-3.636-8.564-3.636-8.564 1.628-8.564 3.636 3.834 3.636 8.564 3.636z"/><path d="M28.726 80.768h9.953v-1.044h-9.953v1.044z"/><path d="M36.77 82.1c0 .824.6 1.492 1.363 1.492s1.364-.668 1.364-1.492-.61-1.492-1.364-1.492-1.363.668-1.363 1.492zm-4.43 0c0 .824.6 1.492 1.363 1.492s1.363-.668 1.363-1.492-.6-1.492-1.363-1.492-1.363.668-1.363 1.492zm-4.43 0c0 .824.6 1.492 1.363 1.492s1.363-.668 1.363-1.492-.6-1.492-1.363-1.492-1.363.668-1.363 1.492z"/></g><path d="M30.222 24.35l-.758-2.88h-2.16l.7 2.88h2.216z" fill="#0b4870" stroke="#fff" stroke-width=".094" stroke-miterlimit="10"/><g fill="#0e538c"><path d="M37.42 41.488s.076.795 3.788.795 9.11-.966 9.11-.966l-8.617-.833s-3.314-.17-4.28 1.004z"/><path d="M46.87 41.772c2.102 0 2.992 1.08 3.826 1.42s1.666.852 1.666.833c-.473-.928-1.136-.947-1.477-1.25s-.246-.15.492-.208c.417-.038 1.174.74 1.704 1.174.474.36.758.398.758.398s-.55-.776-1.23-1.4c-.833-.758-1.875-1.383-2.12-1.496-.455-.19-1.856-.227-2.84-.095-1.136.15-2.292.625-.777.625z"/><path d="M50.353 41.28s1.6.417 1.894.644c.19.152 1.023 1.042 1.023 1.042s-.606-.095-.947-.436c-.36-.36-1.97-1.25-1.97-1.25zm-9.886-1.42s-4.053.265-3.77 2.765c.15 1.42 1.08 1.913 2.3 1.8l4.848-.53 1.155-3.882-4.545-.15z"/><path d="M39.616 40.2L35.64 27.38s-.587-1.875-1.553-1.534c-1.383.5-.7 2.045-.587 2.954.246 1.856.076 2.67 1.364 7.14l2.16 7.764c.473 1.25 1.288-.55 2.52-1.042 2.3-.928.076-2.462.076-2.462zM39.3 20.4c-.776 2.235-3.18 3.4-5.397 2.575-2.197-.814-3.37-3.295-2.594-5.53s3.182-3.4 5.397-2.575c2.197.814 3.37 3.295 2.594 5.53z"/><path d="M43.668 20.618c-1.212 1.818-3.636 2.272-5.397 1.023l.246-2.14c-1.76-1.27-2.197-3.77-.985-5.587l.833-1.23c1.212-1.818 3.636-2.273 5.397-1.023l.795.568c1.76 1.27 2.197 3.77.985 5.587l-1.875 2.803z"/></g><path d="M45.258 14.653c-.208.303-.436.587-.7.87-1.742 1.894-4.072 2.613-5.55 1.837-.682.928-1.458 1.666-2.16 2.235-.814.663-2.898.928-2.898.928-1.212 1.326 3.333 9.07 3.655 9.033.663-.057 1.515-4.337.9-5.9-.284-.7-.74-1.534-.606-1.913.473-1.307 1.136-1.08 1.136-1.08s.87 1.023 1.553.985c.7-.057 1.913-1.155 1.97-1.174a3.02 3.02 0 0 0 .568-.625l1.818-2.727c.474-.758.587-1.667.322-2.48z" fill="#ffe3ca"/><path d="M31.358 47.283s1.477 1.78 1.932 1.97c.606.265 2.462-.303 2.462-.303s.492-8.162 1.06-11.344 1.4-4.015 1.44-5.02c.057-1.6 1.4-2.254 1.174-3.503s-.625-5.72-.758-5.132c-1.155 5.075-2.576.852-2.898.19-.17-.36-4.412 23.142-4.412 23.142z" fill="#f2f0f0"/><path d="M38.08 22.436s1.8 1.97 1.666 2.746c-.114.776.776 3.2-.114 6.57C38.63 35.598 38.1 38.21 37.9 40.73s.663 4.83.322 7.916c-.265 2.424-.814 2.557-.814 2.557s-1.08.265-1.837-.682c-.758-.928.38-9.185.758-11.23.38-2.064 1.59-6.874 1.913-8.295.398-1.742.322-3.522.303-4.034-.095-1.8-.322-2.916-.51-3.598-.02-.095-.114-1.155.038-.928zm-3.144 2.3c-.985 2.84-4.053 4.3-6.855 3.257s-4.28-4.185-3.295-7.026 4.053-4.3 6.855-3.257c2.803 1.023 4.28 4.185 3.295 7.026z" fill="#0e538c"/><path d="M44.577 73.568l-1.004 8.01 4.356 2.064 2.405.53-4.28-3.314 1.4-7.234-2.88-.057z" fill="#fcbaa2"/><path d="M43.29 82.79l.947.246.644-.587 3.485 1.742 3.087.74s.038-.246-.057-.38c-.38-.51-2.557-1.63-2.557-1.63s-.038.74-.34.757-2.973-1.382-3.598-1.76c-1.06-.663-1.27-1.098-1.345-1.042-.227.114-.265 1.913-.265 1.913z" fill="#0e538c"/><path d="M55.087 62.433l3.466 6.818 4.772-.227 2.386-.7-5.284-.9-2.88-5.833-2.462.833z" fill="#fcbaa2"/><path d="M58.837 70.463l.947-.227.303-.833 4.3-.057 2.557-.606s-.303-.34-.492-.435c-.568-.246-2.594-.36-2.594-.36s.208.587-.057.74c-.265.17-3.22.265-3.94.208-1.25-.095-1.6-.36-1.648-.284-.133.265.625 1.856.625 1.856z" fill="#0e538c"/><g fill="#ffb750"><path d="M29.804 42.037l2.576 1.155-.02 3.54 17.745-2.898s1.685-.55 2.765 2.235c1.534 3.94 5.435 16.192 5.435 16.192l-2.462 2.67-7.746-13.843S32.228 58.797 27 57.13c-2.007-.644-3.54-4.318-3.257-8.03.227-2.916.795-5.587.795-5.587l5.265-1.477z"/><path d="M32.06 57.055l12.707-.947-1.098 20.3 3.75.132 2.765-23.786s-.738-3.54-3.163-3.01c-2.443.55-8.314 5.208-14.96 7.3z"/></g><path d="M23.5 62.15s6.666-7.48 8.39-11.704c2.064-5.056 1.894-11.4 2.272-13.503.7-3.863 1.553-11.363 1.704-12.29.17-.928-.417-1.97-.417-1.97s.435-2.803-.814-2.5c-1.8.436-3.58 1.42-4.204 1.723-1.174.53-3.58 14.658-3.712 15.34-.492 2.462-2.29 4.697-3.58 6.988-3.03 5.435-3.807 11.855-3.807 11.855s.38 4.697 4.166 6.06z" fill="#2a94f4"/><g fill="#ffe3ca"><path d="M30.373 42.586s.057.91 4.3.7c4.242-.227 10.454-1.648 10.454-1.648l-9.83-.454s-3.77.02-4.924 1.4z"/><path d="M41.792 42.13c2.026-.038 2.898 1.004 3.693 1.326s1.6.795 1.6.795c-.455-.9-1.098-.91-1.44-1.193-.322-.284-.246-.133.474-.208.417-.038 1.136.7 1.648 1.117.455.36.74.38.74.38s-.53-.758-1.193-1.364c-.814-.72-1.8-1.326-2.045-1.42-.436-.17-1.78-.19-2.746-.038-1.08.15-2.197.644-.74.606z"/><path d="M45.18 41.582s1.553.38 1.82.587c.19.152.985 1.004.985 1.004s-.568-.095-.91-.417c-.34-.303-1.894-1.174-1.894-1.174z"/></g><path d="M33.763 41.582l-6.287-3.314-.057 5.55c-.038 1.534-.682 3.693.53 4.015s1.837.15.587.9c-1.25.72-.966 1.477-.492 2.102s-1.59 6.988-1.098 7.348c1.95-2.462 4.053-5.51 4.962-7.727 1.155-2.88 1.6-6.174 1.856-8.863z" fill="#0e538c"/><path d="M31.737 39.973l.246-12.802L31.89 22c-.076-1.212-2.14.208-2.14.208s-2.897 3.92-2.954 13.37c-.038 6.325.303 9.62 3.22 9.355l5.795-.663 1.345-3.504-5.416-.795z" fill="#2a94f4"/><g fill="#d3d3d3"><path d="M32.38 46.734l21.646-2.708-.057-.454-21.646 2.708.057.454z"/><path d="M41.868 45.067c.038.36.322.625.625.587l11.098-1.383c.303-.038.682-.322.947-1.27l4.28-11.08c-.057-.454-.417-.682-.72-.568l-11.344 1.78c-.303.114-.51.38-.625.87l-4.26 11.06z"/><path d="M43.27 45.37l-.114.02-10.832 1.364c.417.17 1.08.227 1.818.133l18.256-2.29c.74-.095 1.364-.322 1.742-.568L43.27 45.37z"/></g><path d="M31.736 39.973l.246-12.802s-.19-1.08-.568-2.045l-.814 12.82c-.095 1.44-1.27 1.59-1.515 2.064-.265.455-.038.55.833.38.852-.19.55-.038.36.417-.19.474.284.34 1.95-.265 1.212-.436 3.54 0 4.716.265l-5.208-.833z" fill="#0e538c"/><g fill="#0b4870"><path d="M71.69 83.22a.56.56 0 0 0 .087-.007c.284-.046.476-.307.428-.583L65.6 47.47c-.048-.275-.32-.46-.6-.416s-.476.307-.428.583l6.603 35.16c.043.247.264.423.514.423zm-17.032 0c.25 0 .47-.175.514-.423l7.042-35.16c.048-.276-.144-.536-.428-.583s-.553.14-.6.416L54.14 82.63c-.048.276.144.537.428.583a.55.55 0 0 0 .087.007z"/><path d="M54.957 48.384H72.2V45.1H54.957v3.274zm1.848 22.474H69.5v-.995H56.805v.995z"/></g></svg>