<svg xmlns="http://www.w3.org/2000/svg" width="560" height="560" viewBox="0 0 101 101" fill="none" xmlns:v="https://vecta.io/nano"><g fill="#2a94f4"><circle opacity=".1" cx="50.5" cy="50.5" r="50.5"/><ellipse opacity=".1" cx="50.5" cy="83.314" rx="50.5" ry="9.589"/></g><path d="M50.636 18.76s-9.315.595-8.616 8.37-.505 7.22-3.286 11.372S30.17 54.416 42.02 60.2s24.516.828 24.516-7.102c0-8.41-8.94-13.4-7.607-17.594 1.67-5.317 2.42-17.142-8.293-16.74z" fill="#0e538c"/><path d="M38.554 77.21l-5.628.712s-3.234.272-3.674 1.294 1.048 3.454 5.744 1.928l5.123-1.785-1.565-2.148zm23.365 1.462l5.666.272s3.247.013 3.765.996-.776 3.52-5.576 2.367l-5.252-1.384 1.397-2.25z" fill="#d28c1c"/><path d="M29.33 64.804s3.933.48 8.383 1.656 34.18-.026 34.18-.026 3.053 1.876 2.95 5.084c-.078 2.2 5.485 2.95-14.037 6.145-19.03 3.118-28.733-7.18-31.476-12.86z" fill="#0b4870"/><path d="M40.804 44.92l.66.26c1.2.48 1.772 1.837 1.294 3.027l-6.352 15.887c-.48 1.2-1.837 1.772-3.027 1.294l-.66-.26c-1.2-.48-1.772-1.837-1.294-3.027l6.352-15.887c.492-1.2 1.837-1.772 3.027-1.294z" fill="#ea9c1f"/><g fill="#2a94f4"><path d="M49.977 36.394c-9.9 0-9.043 10.052-7.8 17.62s-1.332 12.898-1.332 12.898 11.915 5.29 19.393 0c0 0-4.476-8.72-2.083-13.377s1.734-17.142-8.176-17.142z"/><path d="M47.88 37.04l-5.524 14.14-6.378-2.42s3.74-13.998 11.902-11.72z"/></g><path d="M59.964 44.92l-.66.26c-1.2.48-1.772 1.837-1.294 3.027l6.352 15.887c.48 1.2 1.837 1.772 3.027 1.294l.66-.26c1.2-.48 1.772-1.837 1.294-3.027l-6.352-15.887c-.48-1.2-1.824-1.772-3.027-1.294z" fill="#ea9c1f"/><path d="M52.887 37.04l5.524 14.14 6.378-2.42s-3.726-13.998-11.902-11.72z" fill="#2a94f4"/><path d="M52.473 29.68l.737 7.22c.155 1.578-1.074 2.937-2.652 2.937a2.66 2.66 0 0 1-2.665-2.794l.336-7.374h4.243v.013z" fill="#d28c1c"/><path d="M52.124 23.237s-.246 3.778-6.78 3.13l.22 2.173c.013.142-.104.26-.246.246a.22.22 0 0 1-.194-.181c-.078-.505-.35-1.902-.776-1.32-.517.7.026 3.648 1.01 3.183 0 0 .983 4.683 5.29 4.683s5.227-5.15 5.227-5.15-3.855-3.183-3.752-6.766z" fill="#ea9c1f"/><g fill="#0e538c"><path d="M71.84 66.383s4.476.828 4.916 4.567-4.62 5.485-4.62 5.485-22.135 3.532-32.498 3.842l-1.785-3.79L71.84 66.383z"/><path d="M29.33 64.804s-4.54.35-5.37 4.01 4.01 5.95 4.01 5.95 22.808 6.016 32.886 6.404l2.173-2.924-33.7-13.442z"/></g><rect x="34.402" y="54.88" width="32.365" height="14.301" rx="1.286" fill="#c4c4c4"/><ellipse cx="50.585" cy="62.406" rx="2.634" ry="1.505" fill="#fff"/></svg>