<svg width="82" height="88" viewBox="0 0 82 88" fill="none" xmlns="http://www.w3.org/2000/svg">
<path d="M35.1723 3.64101C34.1215 5.88711 33.9067 9.28161 36.1801 13.2621C36.6098 14.0121 37.5668 14.2738 38.3168 13.8441C39.0668 13.4184 39.3285 12.4613 38.9028 11.7152C37.0239 8.42614 37.3598 6.36364 38.0122 4.96524C38.8715 3.62544 40.7505 2.31684 40.6684 1.44964C40.6137 0.621518 39.9223 -0.0191621 39.2192 0.000437919C37.2583 0.0551259 36.0551 2.18014 35.1723 3.64104L35.1723 3.64101ZM25.7778 6.76601C24.727 9.01211 24.5122 12.4066 26.7856 16.3871C27.2153 17.1371 28.1723 17.3988 28.9223 16.9691C29.6723 16.5434 29.934 15.5863 29.5083 14.8402C27.6294 11.5511 27.9653 9.48864 28.6177 8.09024C28.9458 7.39102 29.3911 6.85974 30.1411 6.39494C30.8871 5.9301 31.3247 5.28164 31.2778 4.57464C30.9028 3.04734 29.645 3.12934 28.3872 3.91448C27.356 4.55901 26.3247 5.67618 25.7856 6.76998L25.7778 6.76601ZM44.5628 6.76601C43.512 9.01211 43.2972 12.4066 45.5706 16.3871C46.0003 17.1371 46.9573 17.3988 47.7073 16.9691C48.4573 16.5434 48.719 15.5863 48.2933 14.8402C46.4144 11.5511 46.7503 9.48864 47.4027 8.09024C48.3675 6.75044 49.7543 5.94574 50.0589 4.57464C50.0042 3.74652 49.3128 3.10584 48.6097 3.12544C47.1409 3.20747 45.4574 5.28164 44.5628 6.76604L44.5628 6.76601ZM3.40283 25.024C2.72705 25.024 2.14114 25.067 1.52394 25.3443C0.910655 25.6217 0.352034 26.2779 0.172334 26.8638C-0.190946 28.0318 0.0863975 28.731 0.394994 32.5591C0.703584 36.3911 3.09419 46.6641 6.87159 56.1881C9.83249 63.6529 13.5513 70.6721 18.2506 74.9811H14.0162C11.4615 74.9811 9.36 77.0827 9.36 79.6334V82.8365C9.36 85.3834 11.4655 87.4849 14.0162 87.4849H57.9302C60.4849 87.4849 62.5864 85.3833 62.5864 82.8365V79.6334C62.5864 77.0865 60.4809 74.9811 57.9302 74.9811H53.6568C57.6802 71.2819 60.9849 65.6022 63.7158 59.3641H76.5828C79.1375 59.3641 81.239 57.2625 81.239 54.7157V35.8837C81.239 33.3368 79.1335 31.2353 76.5828 31.2353H71.6687C71.7898 30.0556 71.8679 28.9736 71.8835 27.9423C71.8445 27.3525 71.696 26.6454 71.1843 26.0634C70.6687 25.4814 69.9655 25.2314 69.3288 25.1181C48.0868 25.0986 25.1608 25.0126 3.40681 25.0244L3.40283 25.024ZM68.7548 28.1959C68.7705 28.4576 68.7509 28.9342 68.708 29.5748C65.9189 42.7388 62.7588 61.2078 48.36 74.9848H23.563C18.4263 72.27 13.391 64.1448 9.78196 55.0398C7.11006 46.2468 3.51246 37.2668 3.18036 28.1648C9.73116 28.1257 16.7424 28.1414 23.4464 28.1414V37.45H20.2745C17.7198 37.45 15.6183 39.5516 15.6183 42.1023V51.5554C15.6183 54.1023 17.7238 56.2038 20.2745 56.2038H29.7472C32.3019 56.2038 34.4034 54.1022 34.4034 51.5554V42.1023C34.4034 39.5554 32.2979 37.45 29.7472 37.45H26.5753V28.1375C40.4623 28.0789 55.0443 28.032 68.7553 28.1961L68.7548 28.1959ZM71.2157 34.3639H76.579C77.4501 34.3639 78.1063 35.0162 78.1063 35.8873V54.7193C78.1063 55.5904 77.454 56.2427 76.579 56.2427H65.028C68.0436 48.6763 70.1608 40.6647 71.2155 34.3637L71.2157 34.3639ZM20.2747 40.5748H29.7474C30.6185 40.5748 31.2747 41.2311 31.2747 42.1021V51.5552C31.2747 52.4263 30.6224 53.0786 29.7474 53.0786H20.2747C19.4036 53.0786 18.7474 52.4263 18.7474 51.5552V42.1021C18.7474 41.231 19.3998 40.5748 20.2747 40.5748ZM50.0597 62.4658C49.7043 65.7392 47.6027 67.4189 45.2042 68.5986C44.173 69.0049 43.6847 69.7705 43.8175 70.5634C43.9621 71.415 44.7707 71.9892 46.2941 71.4384C50.2238 70.0009 53.0675 65.872 53.1886 62.5126C53.2043 61.6493 52.5129 60.9384 51.6495 60.9267C50.7863 60.9111 50.0714 61.6025 50.0597 62.4658ZM14.0127 78.1068H57.9267C58.7978 78.1068 59.454 78.7631 59.454 79.6341V82.8372C59.454 83.7083 58.8017 84.3606 57.9267 84.3606H14.0127C13.1416 84.3606 12.4854 83.7083 12.4854 82.8372V79.6341C12.4854 78.763 13.1378 78.1068 14.0127 78.1068Z" fill="#55493B"/>
</svg>
