<svg width="79" height="94" viewBox="0 0 79 94" fill="none" xmlns="http://www.w3.org/2000/svg">
<path d="M73.5897 48.437H57.1367L55.9219 43.3862L52.8828 44.1167L62.707 84.9997V84.9958C62.9882 86.3746 62.6366 87.8082 61.746 88.9019C60.8593 89.9917 59.5233 90.6246 58.1171 90.6246H7.81212C6.41372 90.6246 5.08942 89.9996 4.19882 88.9215C3.3082 87.8395 2.94492 86.4215 3.21054 85.0465L13.0464 44.1125L10.0073 43.3821L0.159642 84.3661C-0.313018 86.6669 0.276832 89.0536 1.75734 90.8739C3.24174 92.6942 5.46434 93.7489 7.81204 93.7489H58.117C60.4725 93.7489 62.7029 92.6864 64.1873 90.8544C65.6678 89.0224 66.2459 86.62 65.7576 84.3153L63.1443 73.4363H67.3396C73.3787 73.4285 78.2696 68.5379 78.2776 62.4983V53.1233C78.2737 50.5374 76.176 48.4397 73.5901 48.4358L73.5897 48.437ZM75.1522 62.499C75.1483 66.8115 71.6522 70.3076 67.3397 70.3115H62.3944L57.8866 51.5615H73.5896C74.4528 51.5615 75.1521 52.2607 75.1521 53.124L75.1522 62.499Z" fill="#55493B"/>
<path d="M6.40265 40.6249H59.5277C61.2543 40.621 62.6488 39.2265 62.6527 37.4999V34.3749C62.6488 32.6483 61.2543 31.2538 59.5277 31.2499H47.3717L49.2467 21.8749H57.9655C62.278 21.871 65.7741 18.3749 65.778 14.0624V9.37492C65.774 7.64832 64.3796 6.25382 62.653 6.24992H52.372L52.5009 5.6093C52.7743 4.2304 52.4188 2.8007 51.5282 1.7148C50.6376 0.6289 49.3094 0 47.9032 0H18.0282C16.622 0 15.2938 0.62891 14.4032 1.7148C13.5126 2.8007 13.1571 4.2304 13.4305 5.6093L18.5594 31.2503H6.40344C4.67684 31.2542 3.28234 32.6487 3.27844 34.3753V37.5003C3.28235 39.2269 4.67684 40.6214 6.40344 40.6253L6.40265 40.6249ZM62.6527 9.37492V14.0624C62.6488 16.6483 60.5511 18.746 57.9652 18.7499H49.8714L51.7464 9.37492H62.6527ZM16.4967 4.99602C16.4029 4.53508 16.5201 4.05852 16.817 3.69522C17.1138 3.33585 17.5592 3.12491 18.0279 3.12491H47.9029C48.3716 3.12491 48.8169 3.33585 49.1138 3.69522C49.4106 4.0585 49.5278 4.53506 49.4341 4.99602L44.1841 31.25H21.7461L16.4967 4.99602ZM6.40265 34.375H59.5277V37.5H6.40265V34.375Z" fill="#55493B"/>
<path d="M31.6796 56.9258C30.5898 58.5039 25.1523 66.5625 25.1523 70.3128C25.1523 74.6292 28.6484 78.1253 32.9648 78.1253C37.2812 78.1253 40.7773 74.6292 40.7773 70.3128C40.7773 66.5628 35.3398 58.5038 34.25 56.9258L32.9648 55.0625L31.6796 56.9258ZM37.6523 70.3128C37.6523 72.9026 35.5546 75.0003 32.9648 75.0003C30.375 75.0003 28.2773 72.9026 28.2773 70.3128C28.2773 68.6058 30.7148 64.1526 32.9648 60.637C35.2148 64.1526 37.6523 68.6018 37.6523 70.3128Z" fill="#55493B"/>
</svg>
