<svg width="60" height="84" viewBox="0 0 60 84" fill="none" xmlns="http://www.w3.org/2000/svg">
<path d="M15.7131 0C13.3108 0 11.3654 2.0156 11.3654 4.4102L11.3341 69.0702C10.7834 69.5389 10.3068 70.1171 9.93184 70.7811C9.2795 70.7616 8.60374 70.7733 7.88884 70.828C5.31074 71.0194 3.21304 71.742 1.77164 73.0858C0.326339 74.4296 -0.30256 76.492 0.13884 78.5506C0.57634 80.6092 1.97864 82.2303 3.79904 83.0701C5.61934 83.9099 7.81854 84.1209 10.3302 83.9373C11.4864 83.8513 12.5138 83.6404 13.4396 83.3279C14.0959 83.7341 14.8576 83.9802 15.6779 83.9802H19.5373C19.6936 83.988 19.8498 83.9919 20.0022 83.988C20.0295 83.988 20.053 83.9802 20.0803 83.9802H55.6503C58.0526 83.9802 59.9941 81.9646 59.9941 79.57V4.41403C59.9941 2.01953 58.0527 0.00382519 55.6503 0.00382519L15.7131 0ZM15.7131 3.0508H55.6541C56.3611 3.0508 56.9471 3.61721 56.9471 4.4102V27.0192H41.2361V19.945C41.2361 18.0036 39.6541 16.3512 37.6931 16.3512H33.1306C31.1697 16.3512 29.5876 18.0035 29.5876 19.945V27.0192H14.4196V4.4102C14.4196 3.62114 15.006 3.0508 15.7131 3.0508ZM33.1271 19.4028H37.6896C37.9669 19.4028 38.1779 19.5942 38.1779 19.9419V34.2779C38.1779 34.6255 37.963 34.8169 37.6896 34.8169L33.131 34.8208C32.8536 34.8208 32.6427 34.6294 32.6427 34.2818V19.9458C32.6427 19.5981 32.8575 19.4067 33.131 19.4067L33.1271 19.4028ZM14.3811 30.0628L29.5881 30.0667V34.2815C29.5881 36.2229 31.1701 37.8674 33.1311 37.8674H37.6936C39.6545 37.8674 41.2366 36.2229 41.2366 34.2815V30.0667H56.9476V79.5667C56.9476 80.3558 56.3617 80.9261 55.6546 80.9261H24.7166C25.6892 79.0706 25.658 76.9027 24.8064 75.055C23.9549 73.2073 22.4236 71.5784 20.3962 70.0511C18.5759 68.6761 16.7985 67.8831 15.0993 67.7933V67.7894C14.8611 67.7777 14.6189 67.7777 14.3845 67.7972L14.3811 30.0628ZM26.776 44.8128C26.3697 44.8206 25.983 44.9847 25.6979 45.2737C25.4166 45.5628 25.2604 45.9534 25.2643 46.3596V52.8948V52.8909C25.2565 53.3011 25.4127 53.6956 25.7018 53.9886C25.9909 54.2816 26.3854 54.4457 26.7956 54.4457C27.2058 54.4457 27.6003 54.2816 27.8854 53.9886C28.1745 53.6957 28.3307 53.3011 28.3229 52.8909V46.3557V46.3596C28.3307 45.9456 28.1667 45.5511 27.8776 45.258C27.5846 44.969 27.1862 44.8089 26.776 44.8128ZM34.8385 44.8128C33.9947 44.8284 33.3229 45.5198 33.3307 46.3597V52.8949V52.891C33.3151 53.3051 33.4713 53.7074 33.7565 54.0082C34.0455 54.3051 34.444 54.4769 34.8581 54.4769C35.276 54.4769 35.6745 54.3051 35.9597 54.0082C36.2487 53.7074 36.4011 53.3051 36.3855 52.891V46.3558V46.3597C36.3933 45.9456 36.2292 45.5511 35.9401 45.2581C35.6472 44.969 35.2487 44.8089 34.8385 44.8128ZM43.7916 44.8128C42.9517 44.8284 42.2799 45.5198 42.2916 46.3597V52.8949V52.891C42.2838 53.3012 42.44 53.6957 42.7291 53.9887C43.0142 54.2817 43.4088 54.4457 43.8189 54.4457C44.2329 54.4457 44.6236 54.2817 44.9127 53.9887C45.2017 53.6957 45.358 53.3012 45.3502 52.891V46.3558V46.3597C45.3541 45.9456 45.1939 45.5472 44.901 45.2581C44.6041 44.9651 44.2057 44.805 43.7916 44.8128ZM39.1666 55.8638C38.9596 55.8716 38.7564 55.9185 38.5689 56.0044L33.2916 58.4419C28.7721 58.6763 25.0416 62.1372 25.0377 66.4966C25.0377 71.0239 29.0416 74.5825 33.776 74.5825C38.5104 74.5825 42.5065 71.02 42.5065 66.4966C42.5026 64.6841 41.4518 63.145 40.2799 61.7505L40.7252 57.5474V57.5513C40.7721 57.1138 40.6276 56.6802 40.3307 56.356C40.0299 56.0318 39.608 55.8521 39.1666 55.8638ZM37.4088 59.899L37.2291 61.6099C37.1783 62.1021 37.3736 62.5904 37.7486 62.9146C38.8619 63.8794 39.4517 65.1724 39.4556 66.5084C39.4517 69.2272 37.0025 71.5436 33.7759 71.5436C30.5493 71.5436 28.1001 69.2233 28.1001 66.5006C28.104 63.8131 30.5063 61.5162 33.6939 61.4733C33.9088 61.4694 34.1236 61.4225 34.3189 61.3327L37.4088 59.899ZM14.5648 70.919C15.5179 70.8526 16.9398 71.294 18.6625 72.5948C20.4398 73.9386 21.6078 75.2901 22.1273 76.4229C22.3421 76.8877 22.4437 77.294 22.4828 77.6885C21.9788 77.5322 21.5257 77.4424 21.1117 77.3252C20.182 77.0596 19.4008 76.7666 18.475 75.208C17.0062 72.7353 15.1 71.8721 13.7094 71.7314C13.4281 71.7002 13.1937 71.6963 12.9672 71.6885C13.4008 71.2002 13.9007 70.9659 14.5648 70.919ZM9.06479 73.8799C9.04916 74.5205 9.1312 75.1611 9.29917 75.7822C6.92027 75.0049 5.01797 75.5049 3.82647 76.0752C3.50225 76.2314 3.35381 76.3095 3.12335 76.4306C3.25616 76.0674 3.47882 75.7392 3.83038 75.4111C4.596 74.7002 6.05698 74.0791 8.19758 73.9189C8.50227 73.8955 8.78742 73.8877 9.07258 73.8799L9.06479 73.8799ZM12.1039 74.7861C12.6273 74.8252 13.0648 74.8096 13.4242 74.8486C14.2484 74.9346 14.85 75.0049 15.9554 76.872C17.2718 79.0909 19.057 79.9893 20.3382 80.3525C20.6897 80.4541 20.8577 80.4932 21.1116 80.5518C20.7796 80.7432 20.3929 80.8369 19.9163 80.8525C18.8811 80.8838 17.3772 80.3799 15.6507 79.0791C13.8695 77.7353 12.7718 76.4425 12.3069 75.3877C12.2132 75.1768 12.1546 74.9815 12.1038 74.7901L12.1039 74.7861ZM6.93199 78.4306C7.36168 78.4385 7.86949 78.5283 8.50229 78.7431C9.53349 79.0908 10.4515 79.2392 11.2679 79.2275C11.6116 79.6182 11.9984 80.001 12.4124 80.3798V80.4033C11.76 80.6181 10.9671 80.7822 10.0218 80.8525C7.81869 81.0165 6.07259 80.7665 4.95929 80.2548C4.50226 80.0439 4.16632 79.8056 3.88509 79.5322C4.36947 79.3134 4.7679 79.079 5.15849 78.8915C5.70537 78.6298 6.21319 78.4189 6.93189 78.4345L6.93199 78.4306Z" fill="#55493B"/>
</svg>
