<svg width="159" height="41px" viewBox="0 0 159 41" fill="none" xmlns="http://www.w3.org/2000/svg">
    <path
      fillRule="evenodd"
      clipRule="evenodd"
      d="M11.6011 0L0 6.68624V20.059L11.6011 13.3728L23.2018 6.68624L11.6011 0Z"
      fill="#83C6E1"
    />
    <path
      fillRule="evenodd"
      clipRule="evenodd"
      d="M0 20.059V33.4318L11.6011 40.1181L23.2018 33.4318V20.059L11.6011 26.7453V13.3728L0 20.059Z"
      fill="#438FD5"
    />
    <path
      fillRule="evenodd"
      clipRule="evenodd"
      d="M23.202 6.68628L11.6009 13.3728L23.202 20.059V33.4318L34.803 26.7456V13.3728L23.202 6.68628Z"
      fill="#F4220B"
    />
    <path
      fillRule="evenodd"
      clipRule="evenodd"
      d="M84.946 28.669H89.1478V13.3606H84.946V28.669ZM84.7928 10.5132H89.3012V6.3186H84.7928V10.5132Z"
      fill="white"
    />
    <path
      fillRule="evenodd"
      clipRule="evenodd"
      d="M92.5211 16.9427V13.3606H95.3426V8.36995L98.9002 6.3186H102.918V9.90102H99.5444V13.3606H102.918V16.9427H99.5444V28.669H95.3426V16.9427H92.5211Z"
      fill="white"
    />
    <path
      fillRule="evenodd"
      clipRule="evenodd"
      d="M109.911 25.2401H115.155V16.7899H109.911V25.2401ZM119.356 26.7709L115.799 28.8222H109.266L105.709 26.7709V15.2588L109.266 13.2078H115.799L119.356 15.2588V26.7709Z"
      fill="white"
    />
    <path
      fillRule="evenodd"
      clipRule="evenodd"
      d="M130.341 13.3606L128.156 14.6202L125.971 13.3606H123.957V28.669H128.158V16.9427H133.433V13.3606H130.341Z"
      fill="white"
    />
    <path
      fillRule="evenodd"
      clipRule="evenodd"
      d="M76.7885 13.2075H73.2522L70.8012 14.62L68.3505 13.2075H66.6984V28.6691H70.9001V16.7896H76.1445V28.6691H80.346V15.2589L76.7885 13.2075Z"
      fill="white"
    />
    <path
      fillRule="evenodd"
      clipRule="evenodd"
      d="M57.8968 13.3606V25.2397H52.6524V13.3606H48.4506V26.7708L52.0082 28.8222H55.7141L57.8925 27.5666L57.8948 27.568L57.8968 27.5668L57.8988 27.5702L60.071 28.8222H62.0983V13.3606H57.8968Z"
      fill="white"
    />
    <path
      fillRule="evenodd"
      clipRule="evenodd"
      d="M151.559 13.2078L148.676 14.8608L145.824 13.2078H142.88L140.702 14.4628V14.4625L140.702 14.4628L140.702 14.4625L138.524 13.2078H136.5V28.669H140.702V16.7896H145.179V28.669H149.381V16.7896H153.859V28.669H158.061V15.2591L154.503 13.2078H151.559Z"
      fill="white"
    />
  </svg>