<?xml version="1.0" encoding="utf-8"?>
<svg xmlns="http://www.w3.org/2000/svg" fill="none" height="65" viewBox="0 0 408 65" width="408">
<path d="M5.54363 41.6468L35.5506 42.1148L37.4094 21.8235L4.38086 21.3555L5.54363 41.6468Z" fill="#F7DF1E"/>
<path d="M18.2293 39.491C16.5623 39.491 15.462 38.7555 14.7285 37.8822L16.2122 36.2275C16.8248 36.9002 17.4208 37.3014 18.171 37.3014C19.0587 37.3014 19.6088 36.7665 19.6088 35.5254V28.614H22.026V35.6341C22.026 38.2416 20.4965 39.4951 18.2335 39.4951L18.2293 39.491Z" fill="black"/>
<path d="M28.2841 39.3403H24.1123V28.6096H28.2841C31.6474 28.6096 33.9729 30.9246 33.9729 33.9457V33.975C33.9729 36.9961 31.6474 39.3403 28.2841 39.3403ZM31.5099 33.975C31.5099 32.0737 30.2096 30.7407 28.2841 30.7407H26.4629V37.2092H28.2841C30.2096 37.2092 31.5099 35.9055 31.5099 34.0042V33.975Z" fill="black"/>
<path d="M41.5708 12.6598L40.4081 6.55903C40.2997 6.06177 39.8538 5.66898 39.3036 5.66898H37.7533V1.12264C37.7533 0.846855 37.6449 0.512565 37.4199 0.291098C37.199 0.0696315 36.9239 -0.0431913 36.5905 0.0153094L4.88729 1.6784C4.27881 1.73272 3.83704 2.17566 3.83704 2.78573V5.72748H2.28668C1.73239 5.72748 1.29062 6.1161 1.18226 6.61753L0.0194869 12.7183C-0.0346924 13.0526 0.0194869 13.3827 0.240372 13.6627C0.461257 13.9427 0.736321 14.0513 1.06973 14.0513H3.89122L4.33299 20.3192H4.27881C3.9454 20.3192 3.67034 20.4279 3.44945 20.6535C3.22857 20.875 3.11604 21.2093 3.17439 21.4851L4.61222 42.0104C4.6664 42.5662 5.10817 43.0635 5.71665 43.0635H6.10424L6.77106 52.0475C6.82524 52.6032 7.26701 53.0462 7.87549 53.0462H33.6565C34.2108 53.0462 34.7067 52.6032 34.7609 52.0475L35.4819 43.0635H35.8695C36.478 43.0635 36.9198 42.6205 36.9739 42.0104L38.4118 21.4851C38.4118 21.1508 38.3034 20.875 38.1367 20.6535C37.9158 20.432 37.6408 20.3192 37.3074 20.3192H37.2532L37.6949 14.0513H40.5164C40.8498 14.0513 41.1791 13.8842 41.3458 13.6627C41.5083 13.3284 41.6209 12.9983 41.5667 12.664L41.5708 12.6598ZM5.99588 3.78443L35.4861 2.22998V5.66898H5.99588V3.78443ZM32.6604 50.8232H8.87155L8.26308 43.0008H33.2147L32.6604 50.8232ZM34.8193 40.8404H6.71688L5.44575 22.5339H36.0904L34.8193 40.8404ZM34.986 20.2607H6.55018L6.10841 13.9928H35.4277L34.986 20.2607ZM2.39921 11.7739L3.12021 7.89201H38.3618L39.0828 11.7739H2.39921Z" fill="white"/>
<path d="M80.7186 41.9427C77.043 41.9427 74.6178 40.3249 73 38.404L76.2705 34.7633C77.6202 36.247 78.9348 37.1244 80.5846 37.1244C82.5405 37.1244 83.7531 35.9438 83.7531 33.2126V18.0084H89.0786V33.4487C89.0786 39.1794 85.709 41.9427 80.7186 41.9427Z" fill="white"/>
<path d="M103.102 41.6047V39.6487C101.855 41.0304 100.135 41.9399 97.6425 41.9399C94.2379 41.9399 91.4396 39.984 91.4396 36.4103V36.3433C91.4396 32.3994 94.4391 30.5775 98.721 30.5775C100.54 30.5775 101.855 30.8807 103.137 31.3179V31.0148C103.137 28.8898 101.822 27.7122 99.2603 27.7122C97.3044 27.7122 95.9227 28.0824 94.2699 28.6888L92.9903 24.7769C94.9783 23.8996 96.9342 23.3282 100.001 23.3282C105.597 23.3282 108.057 26.2285 108.057 31.114V41.5988H103.102V41.6047ZM103.204 34.3232C102.327 33.9181 101.181 33.6499 99.9336 33.6499C97.7416 33.6499 96.3949 34.5272 96.3949 36.145V36.212C96.3949 37.5937 97.5404 38.4041 99.1932 38.4041C101.586 38.4041 103.204 37.0895 103.204 35.2356V34.3262V34.3232Z" fill="white"/>
<path d="M119.519 41.7415H114.867L107.754 23.538H113.182L117.228 35.6407L121.306 23.538H126.631L119.519 41.7415Z" fill="white"/>
<path d="M137.652 41.6047V39.6487C136.405 41.0304 134.685 41.9399 132.193 41.9399C128.788 41.9399 125.99 39.984 125.99 36.4103V36.3433C125.99 32.3994 128.989 30.5775 133.272 30.5775C135.094 30.5775 136.408 30.8807 137.688 31.3179V31.0148C137.688 28.8898 136.372 27.7122 133.81 27.7122C131.855 27.7122 130.473 28.0824 128.82 28.6888L127.541 24.7769C129.529 23.8996 131.484 23.3282 134.551 23.3282C140.148 23.3282 142.608 26.2285 142.608 31.114V41.5988H137.652V41.6047ZM137.755 34.3232C136.877 33.9181 135.731 33.6499 134.484 33.6499C132.292 33.6499 130.945 34.5272 130.945 36.145V36.212C130.945 37.5937 132.091 38.4041 133.744 38.4041C136.136 38.4041 137.755 37.0895 137.755 35.2356V34.3262V34.3232Z" fill="white"/>
<path d="M155.183 41.6046H145.981V18.0084H155.183C162.598 18.0084 167.722 23.0979 167.722 29.741V29.808C167.722 36.4481 162.598 41.6075 155.183 41.6075V41.6046ZM162.295 29.8051C162.295 25.6251 159.43 22.6927 155.183 22.6927H151.171V36.9174H155.183C159.43 36.9174 162.295 34.052 162.295 29.8721V29.8051Z" fill="white"/>
<path d="M180.904 28.5603C177.499 28.5603 175.409 30.6153 175.409 34.9323V41.6074H170.284V23.5379H175.409V27.1786C176.452 24.6835 178.141 23.0657 181.174 23.1998V28.5603H180.906H180.904Z" fill="white"/>
<path d="M184.309 21.5501V17H189.701V21.5501H184.309ZM184.442 41.6076V23.5381H189.567V41.6076H184.442Z" fill="white"/>
<path d="M204.465 41.9426C201.733 41.9426 200.049 40.695 198.836 39.2463V47H193.712V23.538H198.836V26.1322C200.084 24.4474 201.803 23.1999 204.465 23.1999C208.68 23.1999 212.69 26.5024 212.69 32.5363V32.6033C212.69 38.6371 208.747 41.9397 204.465 41.9397V41.9426ZM207.566 32.5363C207.566 29.5368 205.543 27.5459 203.15 27.5459C200.757 27.5459 198.769 29.5339 198.769 32.5363V32.6033C198.769 35.6027 200.757 37.5936 203.15 37.5936C205.543 37.5936 207.566 35.6377 207.566 32.6033V32.5363Z" fill="white"/>
</svg>