<svg width="35" height="39" viewBox="0 0 35 39" fill="none" xmlns="http://www.w3.org/2000/svg">
<path d="M16.8001 10.4629C16.756 10.4934 16.7133 10.5254 16.6722 10.5604C16.4772 10.7204 16.2822 10.888 16.11 11.0632L16.075 11.1028C15.9227 11.2825 15.7825 11.4699 15.6454 11.6604L15.6225 11.6954C15.5601 11.8051 15.5022 11.9132 15.4428 12.0351L15.4123 12.1022V12.1006C15.3605 12.1981 15.3178 12.2987 15.2828 12.4007C15.2432 12.5181 15.2081 12.6354 15.1807 12.7511L15.1381 12.9263L15.1396 12.9279C15.1274 12.9842 15.1198 13.0421 15.1152 13.1V13.1427C15.0832 13.3864 15.0832 13.6317 15.1152 13.8754V13.9425C15.1274 14.0339 15.1442 14.1253 15.1655 14.2152V14.2624C15.1883 14.3447 15.2127 14.4269 15.2325 14.4772V14.4757C15.2858 14.6387 15.3544 14.7956 15.4397 14.9449L15.4824 15.0226C15.5646 15.1582 15.656 15.2892 15.7551 15.4126L15.7855 15.4476L15.8251 15.4903C15.9044 15.5786 15.9897 15.6624 16.0796 15.7401L16.1192 15.7706H16.1176C16.1892 15.8315 16.2624 15.8864 16.3401 15.9382C16.4635 16.0235 16.5945 16.0966 16.7301 16.1575L16.7773 16.1773C16.8504 16.2078 16.9251 16.2337 17.0027 16.2505H17.0226C17.181 16.284 17.347 16.2444 17.475 16.1454C17.5954 16.0509 17.6716 15.9092 17.6822 15.7554V15.6V15.4171L17.7127 15.1018L17.7553 14.8596V14.858C17.7828 14.7346 17.8239 14.6143 17.8772 14.5C17.897 14.465 17.9168 14.43 17.9321 14.398L17.9595 14.3629L18.0021 14.3081L18.0768 14.2334L18.1789 14.1588H18.2017L18.3342 14.0735L18.3327 14.075C18.3967 14.0415 18.4576 14.0049 18.5171 13.9653C18.6009 13.9318 18.6816 13.8907 18.7578 13.8404L18.8949 13.7703L19.1173 13.653L19.5698 13.4032C19.9872 13.1442 20.3619 12.8227 20.6804 12.448C21.0171 12.0534 21.2745 11.5979 21.4375 11.1074C21.5899 10.6534 21.6523 10.175 21.6249 9.69817C21.6005 9.29752 21.5122 8.9014 21.3598 8.52817C21.1526 8.01477 20.8251 7.55773 20.4077 7.19515C20.301 7.10069 20.1853 7.0169 20.0649 6.94073L20.0146 6.91026C19.9522 6.87066 19.8867 6.83409 19.8196 6.80515C19.6673 6.74421 19.4982 6.75487 19.355 6.83257C19.2087 6.91331 19.1082 7.05652 19.0823 7.22257L19.0549 7.38253C19.0549 7.42214 19.0549 7.47242 19.0274 7.53031L18.9924 7.7055C18.9254 8.04828 18.8324 8.38648 18.7151 8.71553C18.6588 8.87092 18.5887 9.01869 18.5049 9.16036C18.4333 9.27614 18.3495 9.38278 18.2551 9.48028C18.156 9.5793 18.0509 9.67223 17.9397 9.75755C17.8148 9.85048 17.6746 9.94798 17.5193 10.0455L17.2801 10.1628L17.2176 10.2024L17.1201 10.2649L16.9129 10.405L16.8001 10.4629ZM17.085 3.58784C17.2191 4.22919 17.2297 4.89192 17.1155 5.53784C16.9875 6.24319 16.7224 6.91809 16.3355 7.52286C15.9729 8.10178 15.522 8.61974 14.9979 9.06001L14.4205 9.50028L14.1356 9.71051L13.9452 9.84762C13.8523 9.93141 13.7502 10.0061 13.642 10.07C13.5613 10.1401 13.479 10.2071 13.3922 10.2681C13.3419 10.3184 13.2825 10.3702 13.2246 10.4159L13.1819 10.4509H13.1804C13.1423 10.4951 13.1027 10.5377 13.0601 10.5758C13.0601 10.5758 13.0372 10.5987 13.025 10.6154L12.923 10.7434C12.9092 10.7769 12.891 10.8074 12.8727 10.8379L12.8422 10.8927V10.9323C12.8422 10.9826 12.8117 11.0298 12.7874 11.0846V11.0831C12.728 11.2751 12.6914 11.4731 12.6777 11.6727V12.0322L12.6625 12.5029C12.6625 12.6157 12.6625 12.7132 12.6853 12.7833L12.7127 12.9981C12.7325 13.1611 12.6823 13.3256 12.5741 13.449C12.4644 13.5709 12.3075 13.6425 12.1429 13.6425H12.1003C11.9997 13.6318 11.8992 13.6135 11.8002 13.5876H11.7423C11.5412 13.5343 11.3447 13.4627 11.1573 13.3728C11.04 13.3164 10.9242 13.254 10.8145 13.1854L10.7597 13.155C10.6241 13.0681 10.4931 12.9752 10.3697 12.8731L10.2996 12.8183L10.2645 12.7878C10.1061 12.6416 9.95681 12.4846 9.81971 12.3201L9.74963 12.2272V12.2257C9.60795 12.0444 9.48455 11.8509 9.38248 11.6452C9.34287 11.5706 9.29717 11.47 9.24994 11.3603L9.22252 11.2933C9.17682 11.1791 9.13721 11.0618 9.10522 10.9429L9.0778 10.8454C8.98487 10.524 8.93612 10.1903 8.93002 9.85518V9.77291C8.92545 9.69826 8.92545 9.62514 8.93002 9.55049L8.95287 9.30065C8.95287 9.13307 8.99248 8.96549 9.02295 8.79333C9.04885 8.65013 9.08542 8.50693 9.13264 8.36831L9.16311 8.26624C9.21795 8.09409 9.27584 7.93108 9.3383 7.76657L9.35811 7.72391C9.50283 7.43141 9.66584 7.13892 9.83801 6.85858L9.86847 6.81136C10.0787 6.53105 10.3087 6.25682 10.5464 5.99634L10.5479 5.99786C10.5952 5.94454 10.6439 5.89274 10.6972 5.84552L10.842 5.70841C10.9242 5.63071 11.0141 5.55302 11.104 5.47075L11.2594 5.33059L11.2944 5.30012L11.6296 5.03047C11.8368 4.85528 12.0196 4.68313 12.1841 4.52012H12.1826C12.3304 4.3693 12.4675 4.20934 12.5924 4.04023C12.7158 3.8696 12.8179 3.68679 12.9001 3.49333C12.9961 3.26634 13.0692 3.0302 13.118 2.78797C13.2185 2.28983 13.281 1.78251 13.3054 1.2752V1.01774V0.787703V0.565282C13.3099 0.385515 13.3968 0.21794 13.5415 0.112804C13.6847 0.00616196 13.8706 -0.0273546 14.0427 0.0229203C14.1372 0.0472953 14.2301 0.0808119 14.32 0.12042L14.3946 0.150889C14.5714 0.228585 14.742 0.319989 14.905 0.425106C15.5448 0.834918 16.0796 1.39098 16.465 2.04758C16.756 2.52292 16.9647 3.04392 17.085 3.58777L17.085 3.58784ZM33.9755 25.7324C34.4554 23.8022 34.0212 21.7579 32.7964 20.1917C31.5716 18.6255 29.6932 17.71 27.7049 17.71H1.69974C1.23205 17.7085 0.787214 17.9004 0.465737 18.2387C0.144291 18.5784 -0.0232844 19.0339 0.00261162 19.5001C0.206753 22.5972 0.738425 25.6656 1.58699 28.653C2.22378 30.894 3.47911 32.911 5.20974 34.471H2.97028C1.92976 34.471 1.0858 35.3165 1.0858 36.357C1.0858 37.399 1.9298 38.243 2.97028 38.243H24.1796C25.2202 38.243 26.0641 37.399 26.0641 36.357C26.0641 35.3165 25.2201 34.471 24.1796 34.471H21.9371C23.133 33.3909 24.108 32.0883 24.8073 30.6335H27.7049C29.1476 30.6335 30.5476 30.1521 31.6841 29.2624C32.8206 28.3743 33.628 27.1311 33.9753 25.7326L33.9755 25.7324ZM30.1776 24.7879C29.9034 25.932 28.8811 26.7379 27.7051 26.7379H26.0552C26.4528 25.0575 26.7529 23.3558 26.9555 21.6406H27.7051C28.4896 21.6406 29.23 22.0016 29.7129 22.6186C30.1959 23.2371 30.3665 24.043 30.1776 24.8033V24.7879Z" fill="#2ECDB4"/>
</svg>
