<svg width="84" height="73" viewBox="0 0 84 73" fill="none" xmlns="http://www.w3.org/2000/svg">
<path d="M41.6398 42.968C50.3234 42.968 57.3898 33.3352 57.3898 21.484C57.3898 9.632 50.3234 0 41.6398 0H41.5383H41.5227C32.8899 0.082031 25.8896 9.6836 25.8896 21.465C25.8896 33.336 32.956 42.969 41.6396 42.969L41.6398 42.968ZM54.0538 21.499C54.0538 30.9834 49.0382 38.784 42.6868 39.565C41.554 36.7798 38.9016 28.698 43.0189 22.417C47.3861 15.7842 45.6673 7.901 44.2533 3.769C49.8549 5.5346 54.0541 12.8002 54.0541 21.499H54.0538ZM40.5738 3.417C41.691 6.2022 44.359 14.315 40.2418 20.565C35.8746 27.1978 37.5934 35.081 39.0074 39.213C33.4254 37.4474 29.2222 30.1622 29.2222 21.479C29.2222 11.9985 34.2222 4.217 40.5742 3.417H40.5738Z" fill="#55493B"/>
<path d="M7.69084 64.8349C12.726 69.8701 18.9758 72.5185 24.5068 72.5185C28.1904 72.5185 31.5576 71.3349 34.0068 68.8857C40.1552 62.7373 38.3388 50.9367 29.956 42.5537C21.5888 34.1865 9.77204 32.3547 3.62404 38.5029C3.60841 38.5186 3.58888 38.5381 3.57326 38.5693C3.55763 38.585 3.55763 38.6045 3.5381 38.6045C-2.4775 44.7686 -0.645501 56.4995 7.6904 64.8345L7.69084 64.8349ZM10.0541 62.4677C3.35494 55.7685 1.37054 46.7017 5.31974 41.6517C8.08534 42.8353 15.6867 46.6869 17.2177 54.0187C18.8349 61.8039 25.6161 66.1517 29.5337 68.0697C24.3032 70.7845 16.1897 68.6166 10.0537 62.4681L10.0541 62.4677ZM13.1908 38.1517C17.8236 38.1517 23.2258 40.5189 27.6248 44.9173C31.1248 48.4173 33.4412 52.6517 34.16 56.8353C34.7616 60.3705 34.1249 63.4837 32.3748 65.7337C29.6092 64.5657 22.0078 60.7337 20.4768 53.3667C18.8752 45.6167 12.1252 41.2647 8.21084 39.3317C9.67174 38.5505 11.3553 38.152 13.1913 38.152L13.1908 38.1517Z" fill="#55493B"/>
<path d="M49.2578 68.8861C51.6758 71.3041 54.9726 72.5541 58.7578 72.5541C59.7578 72.5541 60.8086 72.4721 61.8594 72.2885C66.7266 71.4721 71.5938 68.8237 75.5934 64.8393C79.5778 60.8549 82.2262 55.9721 83.0426 51.1053C83.8942 46.0701 82.7106 41.6405 79.7262 38.5893C79.7106 38.5737 79.7106 38.5737 79.6911 38.5541C79.6755 38.5385 79.6559 38.5034 79.6403 38.4877C73.5075 32.3393 61.6913 34.1557 53.3083 42.5385C44.9411 50.933 43.1203 62.7335 49.2575 68.8865L49.2578 68.8861ZM79.7578 50.5501C79.0586 54.7337 76.7422 58.9681 73.2226 62.4681C69.7226 65.9681 65.4882 68.2845 61.3046 69.0033C58.4374 69.4877 55.8554 69.1518 53.789 68.0854C57.707 66.1674 64.473 61.8001 66.09 54.0343C67.6056 46.7023 75.2228 42.8353 77.988 41.6673C79.7224 43.9017 80.3552 47.0189 79.7575 50.5501L79.7578 50.5501ZM75.1211 39.3001C71.2031 41.2181 64.4221 45.5853 62.8051 53.3661C61.2895 60.6981 53.6879 64.5501 50.9071 65.7331C46.9735 60.6823 48.9423 51.6311 55.6415 44.9171C61.8056 38.7687 69.9225 36.6007 75.1215 39.2999L75.1211 39.3001Z" fill="#55493B"/>
</svg>
