<svg xmlns="http://www.w3.org/2000/svg" viewBox="0 0 171 171"><title>Asset 31</title><g id="Layer_2" data-name="Layer 2"><g id="Layer_1-2" data-name="Layer 1"><circle cx="85.5" cy="85.5" r="85.5" fill="#454970"/><path d="M49.2,53.9,78.8,87a8.94,8.94,0,0,0,6.7,3,9.1,9.1,0,0,0,6.7-3l29.1-32.6a1.56,1.56,0,0,1,.8-.6,10.57,10.57,0,0,0-4-.8H52.9a10.06,10.06,0,0,0-3.9.8A.35.35,0,0,0,49.2,53.9Z" fill="#fff"/><path d="M126.5,58a1.8,1.8,0,0,1-.6.9l-29,32.5a15.38,15.38,0,0,1-11.4,5.1,15.54,15.54,0,0,1-11.4-5.1L44.6,58.3l-.2-.2A9.75,9.75,0,0,0,43,63.2V108a9.94,9.94,0,0,0,10,9.9h65a9.94,9.94,0,0,0,10-9.9V63.2a10.19,10.19,0,0,0-1.5-5.2" fill="#fff"/></g></g></svg>