<svg xmlns="http://www.w3.org/2000/svg" width="561" height="560" viewBox="0 0 161 160" fill="none" xmlns:v="https://vecta.io/nano">
	<style>
		<![CDATA[.B{fill:#0b4870}.C{fill:#fcd2b1}.D{fill:#e42535}.E{fill:#0e538c}]]>
	</style>
	<g fill="#cce9ff">
		<path opacity=".37" d="M24.03 98.916l.015 2.07c.544 10.21 6.822 19.282 15.583 24.304 7.013 4.007 15.222 4.788 23.1 3.61 7.86-1.173 15.208-4.473 23.286-4.3 11.382.26 23.494 1.853 34.794-3.287 12.842-5.836 22.635-18.983 24.082-33.105 1.427-13.775-9.855-23.452-17.612-33.24-13.935-17.615-36.29-35.137-60.184-32.34-28.623 3.34-38.03 35.612-40.235 59.93-.5 5.54-2.607 10.814-2.828 16.36z" />
		<ellipse opacity=".37" cx="74.694" cy="128.603" rx="68.199" ry="12.99" />
		<path opacity=".37" d="M15.736 32.79l-1.133 1.13c-5.33 5.822-6.933 14.187-4.96 21.73 1.586 6.03 5.596 10.976 10.506 14.677 4.897 3.695 10.69 5.96 14.964 10.503 6.013 6.41 11.686 13.945 20.63 17.4 10.16 3.92 22.7 2.203 31.263-4.638 8.36-6.665 7.59-18.114 8.787-27.682 2.167-17.204-.27-38.996-14.735-50.648C63.735 1.29 40.867 13.56 26.28 25.5c-3.324 2.72-7.367 4.413-10.543 7.29z" />
	</g>
	<path d="M111.9 86.44c-4.023 23.233-22.926 39.36-42.22 36.017S38.018 97.573 42.042 74.34c7.77-44.872 21.76-32.628 41.054-29.287S118.7 47.177 111.9 86.44z" class="D" />
	<path d="M57.492 123.304c-20.68.568-37.577-3.743-37.738-9.63S36.226 102.557 56.907 102c39.942-1.096 31.586 3.908 31.747 9.794s3.787 10.56-31.162 11.52z" fill="#d21c2b" />
	<path d="M107.024 112.142c.52 12.466-18.742 23.4-43.02 24.4s-44.38-8.276-44.9-20.74 19.68-.82 43.96-1.83 43.44-14.295 43.96-1.83z" class="D" />
	<g fill="#d21c2b">
		<ellipse cx="81.556" cy="117.288" rx="11.062" ry="1.985" />
		<ellipse cx="61.702" cy="114.452" rx="11.062" ry="1.985" />
		<ellipse cx="46.953" cy="116.721" rx="11.062" ry="1.985" />
	</g>
	<path d="M49.832 74.884h10.786l-1.16 5.225h-10.97l1.344-5.225zm14.362 0h7.18l-.947 5.225h-7.333l1.1-5.225zm10.756 0h7.18l-.733 5.225h-7.333l.886-5.225zM47.5 84h18.517l-1.04 5.378H46.073L47.5 84zm22.244 0h7.394l-.825 5.378h-7.578L69.754 84zm11.122 0h7.394l-.6 5.378h-7.578L80.876 84zm2.424 9.553h-7.67l-.825 5.347h7.792l.703-5.347zm-11.498 0h-7.67l-1.04 5.347h7.792l.917-5.347zm-11.5 0h-15.34L43.568 98.9h15.614l1.13-5.347zM79.808 66.97H72.84l-.856 4.644h7.1l.733-4.644zm-10.45 0H62.4l-1.04 4.644h7.1l.917-4.644zm-10.45 0H51.94l-1.222 4.644h7.1l1.1-4.644z" stroke="#fff" stroke-width=".105" stroke-miterlimit="10" class="B" />
	<path d="M74.245 46.13c3.36.886 9.564 4.003 10.878 9.35 1.956 8.036-1.956 19.8 4.217 31.35 1.986 3.667-34.13 8.617-34.13 8.617L48.243 54.87s8.708-8.8 10.48-9.41c3.697-1.222 8.8-1.1 15.522.672z" fill="#cce9ff" />
	<path d="M48.214 54.9c-1.253 3.24-4.43 22.52-.886 27.072.397.52-1.833 1.344-1.436 3.728.06.397.733 2.322.733 2.322l2.872.764 6.264-7.242s-2.536-3.942-5.867-18.883c-.978-4.4-1.406-8.495-1.68-7.76z" fill="#2a94f4" />
	<path d="M71.924 77.94S68.9 85.915 61.596 88.053c-1.253.367-2.047 1.772-1.436 2.23.794.58 1.833.703 3.667.703 3.82 0 9.014-1.222 12.59-4.828 5.317-5.317 6.997-7.76 6.447-10.42-.49-2.72-10.94 2.2-10.94 2.2z" class="C" />
	<path d="M84.085 52.792c1.558 2.628 2.444 6.845 2.414 12.895 0 4.675-3.91 12.344-4.492 14.697-.092.397-.336 2.078-.336 2.078l-4.308 4.4-8.647-6.08 2.628-4.186.794.092s.49-2.322.367-3.208 2.383-12.955 3.636-20.686c.703-4.492 6.417-2.597 7.945 0z" fill="#2a94f4" />
	<path d="M76.324 76.503l-2.536-.794-1.04-.275c-.06.733-.672 1.222-.672 1.222l1.986.244 2.292.733 2.69 1.925-2.72-3.056z" class="E" />
	<path d="M62.147 88.023l-4.4-1.253s-1.253 1.742-1.008 2.17 0 2.994 0 2.994l2.14 1.895 1.742-.61s.122-.794-.458-.855c-.61-.092.397-.52.703-.703.305-.214 2.842-1.558 1.283-3.636z" class="C" />
	<path d="M68.93 45.734c.49 1.436-.245 3.056-1.65 3.544l-2.506.917c-1.406.52-2.933-.275-3.422-1.71l-2.23-6.6c-.49-1.436.245-3.056 1.65-3.575l2.506-.917c1.406-.52 2.933.275 3.422 1.71l2.23 6.63z" fill="#ff957e" />
	<path d="M57.99 51.54c.245.947 1.222 1.528 2.14 1.253l7.547-2.17c.917-.275 1.467-1.253 1.222-2.23l-3.086-11.58c-.245-.947-1.222-1.528-2.14-1.253l-7.547 2.14c-.917.275-1.467 1.253-1.222 2.23l3.086 11.61z" class="C" />
	<path d="M54.08 38.767c-.06-.06.703-.917.305-2.597-.52-2.26 1.16-3.178 2.414-3.208.733-.03 3.208 1.16 4.522 1.558s1.192-.122 3.575-.55c1.59-.306 1.956.58 2.506 1.803.55 1.253.61 6.02.61 6.02-.214.306-.55.55-.764.306s-1.07-4.064-1.772-5.194c-.672-1.13-3.422.672-4.92 1.558-1.467.886-2.78 1.04-5.133.55-.275.306-.52.642-.52.794 0 .306.672 2.475.672 2.475s-1.314-.825-1.68-1.467c-.183-.214-.244-1.253.183-2.047z" class="B" />
	<path d="M66.515 45.978c.092.306.397.52.703.428l1.62-.458a.6.6 0 0 0 .397-.733l-.825-3.086c-.092-.306-.397-.52-.703-.428l-1.62.458a.6.6 0 0 0-.397.733l.825 3.086z" class="C" />
	<path d="M67.525 43.045l1.62 6.08c.367 1.375.642 4.553-6.845 6.692-4.43 1.253-5.164-2.17-5.47-3.27-.214-.855.03-3.636.367-4.247 0-.03.49 1.894.49 1.894s.428-2.108 2.536-2.69c3.392-.978 4.736.886 6.203.397 1.16-.397 1.497-2.597 1.1-4.858z" class="B" />
	<path d="M62.42 50.043l-2.323.672a.55.55 0 0 1-.703-.428l-.092-.336 3.454-.978.092.336c.06.336-.122.642-.428.733z" class="C" />
	<path d="M25.602 96.334c1.07 3.086 19.892 14.422 26.217 13.75l19.036.947c16.164-2.047 23.833-28.08 23.833-28.08-.642-6.54-16.592 2.933-22.275 5.867-8.983 4.644-14.697 4.89-14.697 4.89-6.02.642-12.986-4.186-20.594-4.34-8.342-.214-13.23 2.108-11.52 6.967z" class="B" />
	<g fill="#d3d3d3">
		<path d="M66.975 93.218c0-.03 0-.03 0 0v-.856l-32.725-.61v.855l.092.153c.397.733 1.16.855 2.017.886l28.478.55c.855.03 1.62-.092 2.047-.794l.092-.183z" />
		<path d="M59.092 93.187s0 .03 0 0l.092.153c.122.183.275.336.458.428l4.98.092c.825.03 1.558-.06 1.986-.642l.092-.122.03-.03v-.397l-7.578-.153-.06.672zm-4.432-.307l-16.347-.306v-.58l16.378.336-.03.55zm4.25-.7l-3.942-16.744a1.11 1.11 0 0 0-.947-.825l-22.978-.428c-.428 0-.672.336-.58.794l3.942 16.744 24.506.458z" />
	</g>
	<path d="M73.728 115.34c-2.26.397-4.003-2.323-4.003-2.323l-5.867-4.766 1.253-3.24 11.428 5.316s-.52 4.614-2.81 5.012z" class="C" />
	<path d="M69.755 112.834s0 .275.428 1.528.978 1.68 1.528 1.864c2.2.672 3.758.336 9.014 1.375s6.844.244 8.372-2.26-.06-4.492-2.628-4.675c-3.697-.275-5.775.152-7.7-.153-2.017-.306-2.14-.795-3.33-1.56-1.1-.702-2.14 3.514-1.1 4.492.947.856-3.82.978-4.583-.61z" fill="#ffb750" />
	<path d="M70.855 115.248c2.17.672 3.758.336 9.014 1.375s6.844.244 8.372-2.26c.703-1.16.733-2.2.336-2.995 1.16.825 1.558 2.26.52 3.972-1.528 2.506-3.117 3.3-8.372 2.262l-9.014-1.375c-.428-.123-.856-.428-1.222-1.13.122.06.244.122.367.153z" class="B" />
	<path d="M69.755 112.925v-.06c0 .03.03.06.06.1-.03-.03-.06-.03-.06-.03z" fill="#e9d6b8" />
	<path d="M81.1 114.8c.153.06.306-.275.367-.734.092-.947.306-1.864.61-2.81.153-.458.153-.855-.03-.917s-.49.276-.61.734a12.89 12.89 0 0 0-.581 2.78c-.06.46.092.886.244.948zm-1.62-.306c.183.03.336-.275.397-.703.092-.886.306-1.772.61-2.628.153-.427.153-.794-.06-.825-.183-.03-.49.306-.642.734-.275.855-.49 1.742-.58 2.597-.03.428.092.794.275.825zm-1.71-.06c.183.03.367-.306.428-.764.153-.917.367-1.803.703-2.72.153-.46.153-.825-.03-.825-.214 0-.52.336-.672.794-.336.886-.55 1.803-.672 2.69-.06.428.06.794.244.825z" class="B" />
	<path d="M73.33 107.548S33.088 90.406 30.796 90.376c-7.76-.06-5.99 8.067-2.047 11.916 4.644 4.523 39.967 12.803 39.967 12.803l4.614-7.547z" class="E" />
	<path d="M57.38 110.542l11-10.816-4.706-4.797-11.978 13.078 5.683 2.536z" class="C" />
	<path d="M55.118 102.048S83.077 75.495 84.94 74.7c6.386-2.69 10.328 4.614 10.114 7.15-.306 3.27-28.692 29.853-28.692 29.853l-11.245-9.656z" class="E" />
	<path d="M38.558 111.367c-.642.61-.764 2.475-.764 2.475s9.32 3.667 12.59 3.728c.855.03 2.383-.336 3.85-.764.244-.06.825-.733 1.07-.794.458-.122.55.305.917.183l1.742-.672c1.986-4.34 1.314-6.478 1.314-6.478s-4.278 1.283-3.544.275c1.558-2.14-2.933-4.308-3.91-3.178-4.033 4.553-11.367 3.423-13.26 5.225z" fill="#ffb750" />
	<path d="M38.037 112.285c2.872 1.19 8.892 3.605 10.083 3.697 4.92.366 8.342-1.436 10.633-2.506-.214.61-.458 1.314-.794 2.047-.03.062-.733.337-1.742.673-.397.122-.49-.336-.917-.184-.245.06-.794.734-1.07.795-1.467.428-2.994.764-3.85.764-3.27-.06-12.59-3.728-12.59-3.728s0-.856.245-1.558zm6.57-2.812c-.092.184.275.367.794.49 1.07.214 2.108.55 3.147.978.52.214.978.275 1.04.092s-.275-.52-.794-.734c-1.008-.427-2.078-.733-3.117-.947-.49-.153-.978-.06-1.07.122zm2.108-.763c-.092.183.275.427.795.58 1.04.306 2.047.733 3.055 1.253.49.244.947.336 1.008.153s-.275-.58-.764-.825c-.978-.49-1.986-.917-3.025-1.192-.52-.214-1.008-.153-1.07.03zm2.017-.673c-.06.184.275.46.764.642a18.72 18.72 0 0 1 2.933 1.467c.458.305.886.397.947.183.06-.183-.244-.61-.733-.917-.947-.58-1.925-1.07-2.903-1.436-.49-.153-.947-.122-1.008.06z" class="B" />
	<ellipse cx="94.849" cy="89.237" rx="5.673" ry="11.913" transform="rotate(17.766 94.849 89.237)" class="D" />
</svg>
