<svg width="27" height="26" viewBox="0 0 27 26" fill="none" xmlns="http://www.w3.org/2000/svg">
<path fill-rule="evenodd" clip-rule="evenodd" d="M13.5112 0C6.03984 0 0 5.9583 0 13.3295C0 19.2218 3.86994 24.2094 9.23856 25.9747C9.90978 26.1074 10.1556 25.6879 10.1556 25.335C10.1556 25.026 10.1335 23.9667 10.1335 22.8631C6.37504 23.6577 5.59237 21.2741 5.59237 21.2741C4.98835 19.7293 4.0934 19.3323 4.0934 19.3323C2.86325 18.5157 4.183 18.5157 4.183 18.5157C5.54756 18.604 6.26359 19.8839 6.26359 19.8839C7.47133 21.9141 9.41753 21.3405 10.2005 20.9873C10.3122 20.1266 10.6703 19.5308 11.0506 19.1998C8.05295 18.8908 4.89903 17.7433 4.89903 12.6232C4.89903 11.1667 5.43556 9.97504 6.28571 9.04822C6.15158 8.71726 5.6817 7.34876 6.42012 5.51712C6.42012 5.51712 7.56094 5.16395 10.1333 6.88536C11.2346 6.59359 12.3703 6.44516 13.5112 6.4439C14.652 6.4439 15.8149 6.59855 16.8888 6.88536C19.4614 5.16395 20.6022 5.51712 20.6022 5.51712C21.3407 7.34876 20.8705 8.71726 20.7364 9.04822C21.609 9.97504 22.1233 11.1667 22.1233 12.6232C22.1233 17.7433 18.9694 18.8686 15.9494 19.1998C16.4416 19.619 16.8664 20.4134 16.8664 21.6714C16.8664 23.4589 16.8443 24.8935 16.8443 25.3347C16.8443 25.6879 17.0905 26.1074 17.7614 25.975C23.13 24.2091 26.9999 19.2218 26.9999 13.3295C27.0221 5.9583 20.9601 0 13.5112 0Z" fill="#6B7280"/>
</svg>
