<svg xmlns="http://www.w3.org/2000/svg" xmlns:xlink="http://www.w3.org/1999/xlink" width="560" height="560" viewBox="0 0 449 440" fill="none" xmlns:v="https://vecta.io/nano"><style><![CDATA[.B{fill:#ffbe55}.C{fill:#ffe3ca}.D{fill:#d3d3d3}.E{fill:#0e538c}.F{fill:#2a94f4}.G{fill:#0b4870}]]></style><path d="M35.954 369.77c28.175 60.19 94.33 87.884 158.494 57.24 35.1-16.727 62.314-51.414 97.962-67.113 40.034-17.686 84.662-31.74 116.265-68.484 33.66-39.143 47.507-97.687 36.744-147.868-13.162-61.08-67.867-75.27-114.14-100.086C141.456-58.272-69.206 15.147 21.9 300.258c7.61 23.856 4.73 49.563 14.053 69.512z" fill="#5e7895"/><path d="M365.485 107.008l-28.038 3.976-8.02 24.062 8.02 8.02 24.062-8.02 3.976-28.038z" fill="#f7f7f7"/><g class="D"><path d="M331.415 141.08c-1.097-1.097-1.097-2.88 0-3.976l11.997-11.997c1.096-1.097 2.88-1.097 3.976 0s1.097 2.88 0 3.976L335.39 141.08c-1.097 1.096-2.88 1.096-3.976 0z"/><path d="M351.433 129.082c-2.194 2.193-5.827 2.193-8.02 0s-2.194-5.827 0-8.02 5.827-2.194 8.02 0 2.193 5.758 0 8.02z"/></g><path d="M313.386 143.067v3.976l11.996 11.996h3.976l8.02-16.04-8.02-8.02-15.972 8.09z" class="B"/><path d="M284.868 112.492l2.468 4.525 16.04 3.976 3.702-3.976-3.29-12.27 1.714-8.295-11.106-2.262-1.713 8.295-7.815 10.008z" class="E"/><path d="M294.397 94.19l11.105 2.262 2.263-11.105-10.557-5.073-2.81 13.916z" class="F"/><path d="M277.67 203.6c-6.1-1.234-10.077-7.267-8.843-13.368l16.04-77.74 22.21 4.593-15.973 77.67c-1.302 6.17-7.266 10.078-13.436 8.844z" class="G"/><path d="M313.386 143.066l16.04 16.042-40.034 40.034c-4.456 4.456-11.586 4.456-16.042 0s-4.456-11.585 0-16.04l40.035-40.035z" class="B"/><path d="M333.13 167.883l15.356-3.77 5.484 22.006-15.356 3.77-5.484-22.005z" class="E"/><path d="M397.91 163.495l-22.828-8.226c-3.907-1.37-8.158-1.645-12.134-.617-3.153.754-6.1 2.262-8.57 4.387l-5.895 5.005 5.415 22.005 7.54 1.714c3.154.685 6.513.685 9.666-.137 4.045-1.03 7.678-3.154 10.49-6.24l16.315-17.892z" fill="#f7f7f7"/><path d="M390.028 172.133l-9.118-5.758c-5.62-3.428-12.682-3.36-18.235.205a2.87 2.87 0 0 0-.891 3.908c.137.205.274.342.41.48.96.96 2.4 1.096 3.496.41a11.38 11.38 0 0 1 12.203-.137l8.226 5.2 3.908-4.32z" class="D"/><path d="M334.706 167.47l5.484 22.006-57.8 14.327c-6.1 1.508-12.202-2.194-13.7-8.295s2.193-12.202 8.294-13.7l57.722-14.328z" class="F"/><path d="M165.312 133.95l-30.506 17.413L104.3 133.95l30.506-17.344 30.506 17.344z" class="B"/><path d="M134.806 151.362l-18.92-10.832-11.586 6.58 30.506 17.413 30.506-17.413-11.585-6.58-18.92 10.832z" class="F"/><path d="M134.806 164.523l-18.92-10.83-11.586 6.58 30.506 17.413 30.506-17.413-11.585-6.58-18.92 10.83z" class="E"/><use xlink:href="#B" class="D"/><g class="E"><path d="M196.37 367.48v6.307h63.96v-6.307h-63.96z"/><path d="M202.33 372.512c.548 3.3-1.645 6.376-4.936 6.924s-6.375-1.645-6.924-4.936 1.645-6.375 4.936-6.924 6.375 1.646 6.924 4.936zm28.86-82.057h-6.307v79.6h6.307v-79.6zm35.1 82.057c.55 3.3-1.645 6.376-4.936 6.924s-6.375-1.645-6.923-4.936 1.645-6.375 4.935-6.924 6.376 1.646 6.924 4.936z"/></g><path d="M268.483 294.568h-70.266c-4.8 0-8.226-4.662-6.855-9.392l33.522-115.58c.89-3.085 3.702-5.2 6.855-5.2h70.198c4.8 0 8.226 4.66 6.855 9.39l-33.453 115.58c-.89 3.085-3.702 5.2-6.856 5.2z" class="D"/><path d="M258.818 294.568h-61.15c-4.8 0-8.227-4.662-6.856-9.392l33.523-115.58c.89-3.085 3.7-5.2 6.855-5.2h61.15c4.798 0 8.226 4.66 6.855 9.39l-33.522 115.58c-.89 3.085-3.702 5.2-6.855 5.2z" fill="#f2f2f2"/><use xlink:href="#B" x="19.469" class="D"/><path d="M208.295 196.47l-15.22 43.805 3.565 8.638 20.497-3.908 5.827-46.9-14.67-1.645z" class="C"/><g class="F"><path d="M217.48 175.15s-11.997 6.787-14.67 29.272l15.904 9.46-1.234-38.733z"/><path d="M238.046 166.512l-20.565 8.637-16.18 72.118 54.225 21.388 28.86-82.263s-4.73-17.207-31.808-21.526l-14.534 1.646z"/></g><g class="C"><path d="M292.82 251.243l-.822-7.54-8.912-57.173c-1.714-7.815-10.557-11.79-17.55-7.884-5.14 2.88-7.472 9.05-5.484 14.534l10.626 49.083 22.142 8.98z"/><path d="M280.686 238.972l-60.463-4.73-3.016 10.763 58.2 19.675c8.98 3.016 18.098-4.045 17.412-13.437-.48-6.512-5.62-11.722-12.134-12.27z"/></g><path d="M276.984 176.863s7.746 3.36 11.037 23.308l-27.215 8.363s-17.824-19.95 1.234-33.248l14.944 1.577z" class="F"/><path d="M201.234 245.62c2.193 5.965 13.436 6.17 19.33 3.977 5.965-2.194 12.066-5.622 9.803-11.586-2.193-5.964-12.133-9.46-18.577-8.02-7.884 1.85-12.82 9.735-10.557 15.63z" class="C"/><g class="B"><path d="M234.14 253.71l-43.188-5.553.617-4.867 43.188 5.552a2.46 2.46 0 0 1 2.125 2.742c-.206 1.37-1.44 2.33-2.742 2.126z"/><path d="M196.64 248.912l-57.173-7.335c-3.29-.412-5.896-3.017-6.375-6.307l-6.033-41.475c-.55-3.7 2.605-6.855 6.238-6.375l52.51 6.718c2.194.274 3.908 1.988 4.182 4.182l6.65 50.592z"/></g><path d="M164.9 220.394c-.412 3.016-3.085 5.073-6.1 4.73-3.017-.41-5.073-3.085-4.73-6.1.412-3.017 3.085-5.073 6.102-4.73 3.016.41 5.14 3.153 4.73 6.1z" fill="#fff"/><path d="M128.294 358.46l-14.876 6.17-9.392.686c-4.32.343-7.883 3.428-8.843 7.678l-.41 1.988 50.867 6.375 1.028-20.497-18.372-2.4z" class="B"/><path d="M146.735 360.858l5.004-22.348-18.44-2.468-5.004 22.417 18.44 2.4z" class="C"/><path d="M255.46 268.655s-1.44 12.34-23.582 13.984H178.68l-25.1 69.993-26.393-4.25L153.6 245.62l60.463 6.718 41.406 16.316z" class="G"/><path d="M85.654 318.287l-15.904-2.33-8.432-4.25c-3.84-1.92-8.57-1.097-11.517 2.057l-1.37 1.508 40.378 31.603 11.38-17.07-14.533-11.517z" class="B"/><path d="M100.325 329.804l13.847-17.618-14.533-11.654-13.985 17.755 14.67 11.517z" class="C"/><path d="M201.302 247.267l-40.994-12.27-5.073-1.783c-3.565-1.37-12.477-3.222-19.4 7.335-8.912 13.574-44.422 64.85-44.422 64.85l21.662 15.973 47.302-60.326a21.11 21.11 0 0 1 17.069-8.706l36.607-.07-12.75-5.004z" class="G"/><path d="M254.02 144.026c.754-1.37 13.436-23.993 1.782-29.683 0 0-1.508-11.928-14.875-10.626s-9.735 5.2-18.235 3.29-16.522 2.468-15.905 9.53c.617 7.13 6.102 10.145 15.905 8.432s17.55-.412 17.55-.412l8.158 2.4 5.62 17.07z" class="B"/><path d="M255.665 168.5l-1.03-28.724-19.948 7.06 1.576 23.034c.343 5.347 3.36 9.53 8.706 9.117l1.646-.137c5.347-.343 9.39-4.936 9.05-10.35z" class="C"/><path d="M252.922 143.752s3.77 23.994-16.727 25.365l-.89-11.38 17.618-13.985z" fill="#fcd2b1"/><g class="C"><path d="M236 163.77h.685c10.215-.48 18.098-9.117 17.618-19.332l-.96-20.84c-.137-2.673-2.4-4.66-5.005-4.593l-24.336 1.166c-4.73.205-8.363 4.25-8.158 8.98l.823 17.138c.48 10.078 9.118 17.96 19.332 17.48z"/><path d="M249.7 138.13c.137 3.427 3.084 6.1 6.512 5.964s6.1-3.085 5.964-6.513-3.085-6.1-6.512-5.964c-3.497.137-6.17 3.017-5.964 6.513z"/></g><g class="B"><path d="M246.684 121.404l1.234 23.308c.137 2.125-.754 4.25-2.468 5.415-1.097.754-1.988 1.783-3.907 1.51-5.553-.823-3.017-4.936-14.26-4.32-10.283.548-9.53 6.307-9.53 6.307s1.988 10.9 16.1 11.38c14.122.55 21.183-8.432 19.537-20.29l-1.37-24.61-5.347 1.303z"/><path d="M216.52 125.312s6.58 1.028 16.1-1.303 17.07 5.347 17.07 5.347 2.057 3.565 2.537 3.428c.48-.07 3.428-1.234 3.428-1.234l-.138-10.763-6.992-5.416-19.332-.822-11.448 2.536-1.234 8.227zm5.005-50.866l.48 1.028-10.214 4.662-.48-1.097c-1.988-4.32-5.758-7.884-10.283-9.803-3.907-1.645-6.65-4.8-7.883-8.775-1.714-6.033 1.096-13.7 8.1-16.932 7.335-3.36 15.835-.274 19.057 6.65 1.44 3.153 1.646 6.787.412 10.146-1.646 4.593-1.303 9.53.822 14.122zm2.88 6.1c.548 1.165 0 2.536-1.234 3.085l-5.896 2.674c-1.234.548-2.605.07-3.153-1.165l-1.234-2.673 10.214-4.662 1.303 2.742zm-27.247-48.945l-2.432 1.1 2.56 5.613 2.432-1.1-2.56-5.613zm18.335 4.728l2.468.9 2.33-5.827-2.468-.9-2.33 5.827zm19.655 8.593l-5.863 2.674 1.08 2.37 5.863-2.674-1.08-2.37zm-49.418 22.56l-5.862 2.674 1.08 2.37 5.862-2.674-1.08-2.37zm-5.336-19.91l-.96 2.468 5.896 2.057.9-2.468-5.827-2.057z"/></g><path d="M127.54 98.85l-2.81-2.81c-.48-.48-1.097-.754-1.782-.754s-1.303.274-1.782.754l-.412.41c-3.702-2.468-8.09-3.77-12.613-3.84h-.07c-2.81 0-5.553.48-8.09 1.508l4.936-4.936c.617.274 1.302.48 1.988.48 1.234 0 2.468-.48 3.3-1.37.89-.89 1.37-2.057 1.37-3.29s-.48-2.468-1.37-3.3c-.89-.89-2.056-1.37-3.3-1.37s-2.468.48-3.29 1.37c-.89.89-1.37 2.057-1.37 3.3 0 .686.137 1.37.48 1.988l-8.912 8.912-.274-.274c-.48-.48-1.097-.754-1.782-.754s-1.302.274-1.782.754l-2.88 2.81c-.48.48-.754 1.097-.754 1.782s.274 1.303.754 1.782l.274.275-8.912 8.91c-.617-.274-1.302-.48-1.988-.48-1.234 0-2.468.48-3.29 1.37-1.85 1.85-1.85 4.798 0 6.65.89.89 2.057 1.37 3.29 1.37s2.468-.48 3.3-1.37c1.44-1.44 1.782-3.633.89-5.347l4.936-4.936c-.96 2.605-1.508 5.347-1.508 8.158 0 4.525 1.302 8.843 3.84 12.614l-.48.48a2.57 2.57 0 0 0 0 3.564l2.81 2.81c.48.48 1.097.754 1.782.754s1.302-.274 1.782-.754l2.81-2.81a2.57 2.57 0 0 0 0-3.564l-2.81-2.81c-.48-.48-1.097-.754-1.782-.754s-1.303.274-1.782.754l-.07.07c-4.045-6.58-3.907-15.15.548-21.594.274.137.617.205.89.205.686 0 1.303-.274 1.782-.754l2.81-2.81c.754-.754.89-1.782.548-2.673 6.444-4.456 15.013-4.662 21.594-.548l-.206.206a2.57 2.57 0 0 0 0 3.565l2.81 2.81c.48.48 1.097.754 1.782.754s1.303-.275 1.783-.754l2.8-2.81c1.166-1.097 1.166-2.674.206-3.702zm-33.454 32.63l-1.988 1.988-1.988-1.988 1.988-1.988 1.988 1.988zm11.723-47.713c.274-.274.685-.48 1.097-.48s.822.137 1.096.48c.275.274.48.686.48 1.097s-.137.823-.48 1.097c-.274.274-.685.48-1.096.48s-.823-.137-1.097-.48c-.274-.274-.48-.686-.48-1.097a2.25 2.25 0 0 1 .48-1.097zm-28.244 32.7c-.274.274-.686.48-1.097.48s-.823-.137-1.097-.48a1.53 1.53 0 0 1 0-2.194c.274-.274.686-.48 1.097-.48s.823.138 1.097.48c.617.617.617 1.646 0 2.194zm14.122-14.327l-1.988-1.988 1.988-1.99 1.988 1.99-1.988 1.988zm31.19.48l-1.988-1.988 1.988-1.988 1.988 1.988-1.988 1.988z" class="E"/><defs ><path id="B" d="M248.946 294.568h-74.31a6.29 6.29 0 1 1 0-12.614h74.31a6.29 6.29 0 0 1 6.307 6.307c0 3.565-2.81 6.307-6.307 6.307z"/></defs></svg>