<svg xmlns="http://www.w3.org/2000/svg" xmlns:xlink="http://www.w3.org/1999/xlink" width="560" height="560" viewBox="0 0 466 393" fill="none" xmlns:v="https://vecta.io/nano"><style><![CDATA[.B{stroke-miterlimit:10}.C{fill:#3e7191}.D{fill:#ffe3ca}.E{stroke:#fff}.F{stroke-width:.75}.G{stroke-linecap:round}.H{fill:#3dccb4}.I{fill:#e1313f}]]></style><path d="M309.784 299.044c-50.77 41.62-64.846 12.03-120.494-26.338-23.273-16.026-75.763-21.507-114.735-43.757C-6.317 182.776 24.062 97.166 96.108 38.173s178.28-48.45 237.274 23.597 48.448 178.28-23.598 237.274z" fill="url(#A)"/><path d="M461.494 392.318H4.506c-2.462 0-4.506-2.044-4.506-4.506v-12.588c0-2.462 2.044-4.506 4.506-4.506h456.988c2.462 0 4.506 2.044 4.506 4.506v12.588c0 2.462-2.044 4.506-4.506 4.506z" fill="#fff"/><path d="M394.093 335.787c3.02-7.71 6.086-16.305 3.252-24.062-.697-1.905-1.72-3.902-1.115-5.807.836-2.6 4.227-3.53 5.39-5.992 1.254-2.694-.697-5.9-.186-8.826.51-2.972 3.437-4.923 6.317-6.038 2.834-1.07 5.946-1.72 8.268-3.716 4.413-3.856 3.856-10.73 2.927-16.49-.976-5.76-1.672-12.588 2.508-16.63-7.757 1.486-15.7 3.02-22.436 7.153s-12.124 11.38-11.752 19.278c.186 3.948 1.765 8.175-.046 11.705-1.95 3.81-7.2 5.296-8.547 9.337-1.533 4.692 3.02 8.92 4.83 13.47 1.672 4.274.882 9.104 1.254 13.703s2.787 9.8 7.34 10.498l1.997 2.416z" class="C"/><path d="M390.935 325.66c-.093-22.436 4.274-69.398 30.193-77.248" class="B E F G"/><path d="M376.024 333.93c-4.6-8.594-9.383-18.256-7.107-27.732.558-2.322 1.487-4.784.51-6.968-1.347-2.926-5.435-3.53-7.153-6.27-1.858-3.02.046-7.014-.976-10.405-1.022-3.437-4.738-5.295-8.222-6.178s-7.246-1.207-10.173-3.25c-5.667-3.902-5.992-12.03-5.667-18.906s.233-14.957-5.25-19.138c9.29.65 18.813 1.394 27.267 5.296s15.794 11.66 16.398 20.95c.325 4.645-.93 9.8 1.672 13.703 2.833 4.18 9.197 5.203 11.287 9.755 2.416 5.25-2.322 10.823-3.81 16.444-1.393 5.25.233 10.777.42 16.21s-1.905 11.845-7.154 13.285l-2.044 3.206z" class="H"/><path d="M378.3 321.62c-3.02-26.292-14.54-80.686-45.987-86.307" class="B E F G"/><path d="M405.15 384.468h-40.506c-2.833 0-5.11-2.323-5.11-5.1l-3.39-58.436c0-2.833 2.322-5.1 5.11-5.1h47.334c2.834 0 5.1 2.323 5.1 5.1l-3.39 58.436c-.047 2.833-2.323 5.1-5.156 5.1z" fill="#cacfd5"/><path d="M48.217 351.3c-2.1-5.25-4.134-11.102-2.23-16.397.465-1.3 1.16-2.648.743-3.948-.557-1.766-2.88-2.416-3.67-4.088-.883-1.858.51-4.04.14-6.04-.372-2.044-2.37-3.344-4.273-4.088-1.95-.743-4.088-1.16-5.62-2.554-3.02-2.602-2.648-7.293-1.997-11.242s1.16-8.547-1.72-11.334c5.296 1.022 10.684 2.09 15.283 4.878s8.268 7.757 8 13.145c-.14 2.695-1.208 5.575.046 8 1.347 2.6 4.924 3.577 5.806 6.364 1.022 3.205-2.044 6.085-3.298 9.197-1.16 2.927-.604 6.225-.883 9.337s-1.904 6.69-5.017 7.154l-1.3 1.625z" class="C"/><path d="M50.353 344.38c.047-15.282-2.88-47.287-20.578-52.63" class="B E F G"/><path d="M60.527 350c3.16-5.853 6.4-12.45 4.83-18.906-.372-1.58-1.022-3.252-.325-4.738.93-1.997 3.716-2.416 4.877-4.274 1.254-2.043 0-4.784.65-7.06.697-2.323 3.205-3.623 5.574-4.227s4.924-.836 6.92-2.183c3.856-2.648 4.088-8.176 3.856-12.914s-.186-10.173 3.577-13.053c-6.317.465-12.82.93-18.58 3.577s-10.777 7.943-11.195 14.26c-.232 3.158.65 6.69-1.115 9.336-1.905 2.834-6.27 3.53-7.71 6.643-1.672 3.577 1.58 7.386 2.6 11.195.93 3.576-.14 7.34-.28 11.055s1.3 8.083 4.877 9.058l1.44 2.23z" class="H"/><path d="M58.947 341.64c2.044-17.93 9.894-54.998 31.308-58.807" class="B E F G"/><path d="M40.645 384.467h27.64a3.51 3.51 0 0 0 3.484-3.483l2.323-39.856a3.51 3.51 0 0 0-3.484-3.483H38.323a3.51 3.51 0 0 0-3.484 3.483l2.322 39.856a3.51 3.51 0 0 0 3.484 3.483z" fill="#cacfd5"/><path d="M404.406 18.338v196.025c0 4.32-3.53 7.85-7.85 7.85H84.96c-4.32 0-7.85-3.53-7.85-7.85V18.338c0-4.32 3.53-7.85 7.85-7.85h311.55c4.366 0 7.897 3.53 7.897 7.85z" stroke="#cce9ff" stroke-width="2" class="B"/><path d="M414.624 8.12v196.025c0 2.37-1.068 4.505-2.694 5.945-.232.233-.51.418-.79.604-1.255.836-2.74 1.347-4.367 1.347H95.178c-1.626 0-3.112-.464-4.366-1.347-2.1-1.393-3.484-3.81-3.484-6.55V8.12c0-4.32 3.53-7.85 7.85-7.85h311.55c4.366 0 7.896 3.53 7.896 7.85z" fill="#fff"/><path opacity=".1" d="M245.216 170.002c33.787 0 61.177-27.4 61.177-61.177s-27.4-61.176-61.177-61.176-61.176 27.4-61.176 61.176 27.4 61.177 61.176 61.177z" class="C"/><path d="M250.605 175.4c33.787 0 61.177-27.39 61.177-61.176s-27.4-61.177-61.177-61.177-61.176 27.4-61.176 61.177 27.39 61.176 61.176 61.176z" stroke="#3dccb4" class="B"/><path d="M207.963 143.432l1.068-2.787s4.785-3.438 5.203-4.83c-.372-.28-2.88.79-3.53.882.604-1.44 2.044-4.645 3.02-5.992.278-.372.046-.975-.465-.975-1.347-.047-3.577.557-5.202 1.068-2.555 2.74-2.834 7.107-1.998 8.315-.697 1.904-1.858 3.995-1.858 3.995l3.763.325z" class="D"/><path d="M205.175 140.32l3.716 2.787-8.593 20.67-3.948-6.967 8.825-16.49z" class="I"/><path d="M173.125 245.764c-3.717 8.826-32.052 86.864-23.226 120.31h10.684l29.264-94.296c0 10.22 3.716 85.47 6.503 94.296 5.574.93 13.47 0 13.47 0s4.18-103.586 1.394-120.773c-14.865-1.858-38.1.464-38.1.464z" class="C"/><use xlink:href="#B" class="I"/><use xlink:href="#B" opacity=".4" fill="#1d3557"/><path d="M204.154 179.292l24.247-36.186 4.645 2.788-27.638 50.864s3.25 14.818 3.948 20.206c.51 3.856 2.694 7.247 4.6 10.312 2.23 3.67 2.137 8.315-.232 11.892l-2.973 4.273c-5.1.465-33.445 4.18-39.02 0s-1.394-8.825-1.394-8.825 6.643-10.963 6.085-19.185l-1.904-30.518 29.636-5.62z" class="I"/><path d="M151.292 366.073v4.18h6.503v-4.18h-6.503zm47.845 0v4.18h6.503v-4.18h-6.503z" class="D"/><g class="H"><path d="M208.427 380.008c0 .372-.836.697-2.1.976-3.438.697-9.894.743-10.916-.976-.65-1.068.093-3.437 1.022-5.76 1.16-2.74 2.647-5.295 2.647-5.295h6.504c1.44 3.16 2.833 9.662 2.833 11.055zm-46.915 0c0 .418-1.255.8-3.02 1.07-3.948.557-10.405.418-11.38-1.16-.604-1.022 0-3.16.882-5.342 1.162-2.88 2.834-5.714 2.834-5.714h6.503c1.394 3.16 4.18 9.755 4.18 11.148z"/><path d="M158.492 381.077c-3.948.557-10.405.418-11.38-1.162-.604-1.022 0-3.158.882-5.342.976-.557 2.1-.836 3.298-.836 3.95 0 7.154 3.252 7.2 7.34zm47.845-.093c-3.438.696-9.894.743-10.916-.976-.65-1.068.093-3.437 1.022-5.76.836-.325 1.718-.5 2.694-.5 3.902 0 7.107 3.205 7.2 7.247z"/></g><path d="M201.692 164c0 5.295-.65 9.01-4.878 9.01s-9.754-3.902-9.754-9.197 3.437-9.57 7.7-9.57 6.922 4.46 6.922 9.755z" class="D"/><path d="M195.42 157.97c5.1-.93 12.542-9.3 5.574-12.542s-19.974-4.18-25.548 4.645 1.394 15.794 2.323 20.44-3.02 8.13-8.594 12.774-13.703 22.993.233 29.497 36.232 1.393 37.625-19.5-17.187-23.7-17.187-25.548 5.574-9.755 5.574-9.755z" fill="#0e538c"/><path d="M192.653 164.983c1.307-.374 1.96-2.097 1.46-3.848s-1.966-2.868-3.273-2.494-1.96 2.097-1.46 3.848 1.966 2.868 3.274 2.494z" class="D"/><path d="M414.624 8.12v9.8H87.328v-9.8c0-4.32 3.53-7.85 7.85-7.85h311.55c4.366 0 7.896 3.53 7.896 7.85z" class="C"/><path d="M202.4 41.425h-99.406a3.51 3.51 0 0 1-3.484-3.484v-2.137a3.51 3.51 0 0 1 3.484-3.484h99.452a3.51 3.51 0 0 1 3.484 3.484v2.137c-.046 1.904-1.626 3.484-3.53 3.484zM174.564 56h-72.092c-1.626 0-2.973-1.347-2.973-2.973v-3.16c0-1.626 1.347-2.973 2.973-2.973h72.092c1.626 0 2.973 1.347 2.973 2.973v3.16c0 1.626-1.347 2.973-2.973 2.973zm7.758 14.4h-79.7c-1.718 0-3.112-1.394-3.112-3.112v-2.834a3.11 3.11 0 0 1 3.112-3.112h79.7c1.718 0 3.112 1.394 3.112 3.112v2.834a3.11 3.11 0 0 1-3.112 3.112z" fill="#1d3557"/><path d="M402.362 203.725h-51.096c-3.066 0-5.575-2.508-5.575-5.574v-44.13c0-3.065 2.51-5.574 5.575-5.574h51.096c3.066 0 5.574 2.51 5.574 5.574v44.13c0 3.066-2.508 5.574-5.574 5.574z" class="I"/><g class="H"><path opacity=".25" d="M232.768 134.606l-19.65-18.767c-2.787-2.647-2.88-7.06-.232-9.847s7.06-2.88 9.847-.233l12.96 12.403 37.3-38.833c2.647-2.787 7.06-2.88 9.847-.186 2.787 2.648 2.88 7.06.186 9.848l-43.664 45.476c-1.72 1.858-4.692 1.95-6.596.14z"/><path d="M228.82 138.554l-19.65-18.766c-2.787-2.648-2.88-7.06-.233-9.848s7.06-2.88 9.848-.232l12.96 12.402 37.3-38.833c2.648-2.787 7.06-2.88 9.848-.186 2.787 2.648 2.88 7.06.186 9.848l-43.664 45.476c-1.72 1.858-4.692 1.95-6.596.14z"/></g><path d="M229.19 143.57l1.533-2.323s-1.858-5.574-1.393-6.967c.464 0 1.858 2.322 2.322 2.787.372-1.533 1.07-4.924 1.07-6.643 0-.51.51-.8.93-.51 1.115.743 2.6 2.555 3.576 3.902.465 3.716-1.858 7.432-3.25 7.897-1.394 1.858-1.58 3.81-1.58 3.81l-3.206-1.95z" class="D"/><defs><radialGradient id="A" cx="0" cy="0" r="1" gradientUnits="userSpaceOnUse" gradientTransform="translate(198.964 159.629) rotate(89.9901) scale(206.871 223.669)"><stop stop-color="#3e7191"/><stop offset="1" stop-color="#1d3557"/></radialGradient><path id="B" d="M210.47 246.647l-38.1 2.043c-1.3.093-1.95-1.58-.93-2.415.557-.465.882-1.115.93-1.812.046-.882.37-1.58 1.347-1.625l36.418-1.95c1.208-.047 1.16.79 1.16 1.904 0 .232.093.51.28.65.65.65.836 1.673.325 2.416-.28.464-.743.743-1.44.8z"/></defs></svg>